<?xml version="1.0" encoding="UTF-8"?>
<svg id="Layer_1" xmlns="http://www.w3.org/2000/svg" version="1.1" viewBox="0 0 800 800">
  <!-- Generator: Adobe Illustrator 29.8.3, SVG Export Plug-In . SVG Version: 2.1.1 Build 3)  -->
  <defs>
    <style>
      .st0 {
        fill: #fc6f58;
      }

      .st1 {
        fill: #c1321f;
      }

      .st2 {
        fill: #f4e3c3;
      }

      .st3 {
        fill: #5b3836;
      }

      .st4 {
        fill: #734b46;
      }
    </style>
  </defs>
  <g>
    <path class="st0" d="M367.74,497.15c38.4-21.47,47.18-38.93,49.38-54.52,2.22-15.72-9.04-32-24.7-33.11-11.67-.81-20.86,5.89-24.69,9.36-3.8-3.51-12.58-10.29-24.26-9.57-15.67.98-27.08,17.18-24.99,32.92,2.07,15.59,11.03,33.13,49.25,54.91Z"/>
    <path class="st0" d="M371.81,420.28c38.4-21.47,47.18-38.94,49.38-54.52,2.22-15.72-9.03-32.02-24.69-33.12-11.67-.81-20.86,5.89-24.69,9.36-3.8-3.51-12.58-10.28-24.26-9.56-15.67.97-27.07,17.18-24.99,32.9,2.07,15.6,11.03,33.14,49.25,54.93Z"/>
    <path class="st1" d="M424.8,503.59c38.41-21.47,47.19-38.93,49.39-54.52,2.22-15.72-9.03-32-24.7-33.11-11.67-.81-20.86,5.88-24.69,9.36-3.8-3.52-12.57-10.29-24.26-9.57-15.67.97-27.07,17.18-24.99,32.92,2.07,15.6,11.02,33.13,49.25,54.91Z"/>
    <path class="st0" d="M476.93,462.57c38.41-21.46,47.18-38.93,49.38-54.51,2.22-15.72-9.03-32.02-24.7-33.11-11.67-.81-20.86,5.88-24.69,9.35-3.8-3.51-12.58-10.28-24.26-9.56-15.67.97-27.08,17.18-24.99,32.92,2.07,15.59,11.03,33.13,49.25,54.9Z"/>
    <path class="st2" d="M529.86,412.18c38.4-21.47,47.18-38.93,49.38-54.51,2.22-15.73-9.03-32.02-24.7-33.12-11.67-.81-20.86,5.89-24.69,9.36-3.8-3.51-12.58-10.29-24.26-9.56-15.67.97-27.08,17.17-24.99,32.9,2.07,15.6,11.03,33.13,49.25,54.91Z"/>
    <path class="st0" d="M535.6,376.8c38.4-21.47,47.18-38.93,49.38-54.52,2.22-15.72-9.03-32-24.7-33.11-11.67-.81-20.86,5.88-24.69,9.36-3.8-3.52-12.58-10.29-24.26-9.57-15.67.97-27.08,17.18-24.99,32.92,2.06,15.6,11.03,33.13,49.25,54.91Z"/>
    <path class="st0" d="M591.82,374.6c38.41-21.46,47.18-38.92,49.38-54.51,2.22-15.72-9.03-32.02-24.69-33.11-11.68-.82-20.86,5.89-24.69,9.36-3.8-3.52-12.58-10.29-24.26-9.57-15.67.97-27.08,17.18-24.99,32.92,2.07,15.59,11.03,33.13,49.25,54.9Z"/>
    <path class="st0" d="M634.4,333.26c38.41-21.46,47.18-38.93,49.38-54.51,2.22-15.72-9.03-32.02-24.7-33.11-11.67-.82-20.86,5.88-24.69,9.36-3.8-3.51-12.58-10.28-24.26-9.56-15.67.97-27.08,17.18-24.99,32.92,2.07,15.59,11.03,33.13,49.25,54.9Z"/>
    <path class="st2" d="M656.73,285.97c38.41-21.47,47.18-38.93,49.38-54.51,2.22-15.72-9.03-32.02-24.69-33.11-11.67-.82-20.86,5.89-24.69,9.36-3.8-3.51-12.58-10.29-24.26-9.56-15.67.97-27.08,17.17-24.99,32.91,2.07,15.6,11.03,33.13,49.25,54.91Z"/>
    <path class="st0" d="M579.44,311c38.4-21.47,47.19-38.93,49.39-54.51,2.22-15.72-9.03-32.02-24.7-33.12-11.67-.81-20.85,5.89-24.69,9.36-3.8-3.51-12.58-10.29-24.26-9.56-15.67.97-27.07,17.18-24.99,32.91,2.07,15.6,11.03,33.12,49.25,54.91Z"/>
    <path class="st0" d="M649.21,224.51c38.41-21.47,47.18-38.92,49.38-54.51,2.22-15.72-9.03-32.01-24.7-33.11-11.67-.81-20.85,5.89-24.69,9.36-3.8-3.51-12.58-10.29-24.25-9.56-15.68.97-27.08,17.17-24.99,32.91,2.06,15.6,11.02,33.13,49.25,54.91Z"/>
    <path class="st0" d="M612.22,256.13c38.4-21.47,47.19-38.93,49.39-54.51,2.22-15.72-9.04-32.01-24.7-33.11-11.67-.82-20.85,5.89-24.69,9.36-3.8-3.51-12.58-10.29-24.26-9.56-15.67.97-27.07,17.18-24.99,32.91,2.07,15.6,11.03,33.13,49.25,54.91Z"/>
    <path class="st2" d="M397.79,368.24c38.4-21.46,47.18-38.93,49.38-54.51,2.22-15.72-9.03-32.02-24.7-33.11-11.67-.82-20.86,5.89-24.69,9.36-3.8-3.51-12.58-10.28-24.26-9.56-15.67.97-27.08,17.18-24.99,32.9,2.07,15.6,11.03,33.13,49.25,54.91Z"/>
    <path class="st0" d="M215.25,387.6c38.4-21.47,47.18-38.94,49.38-54.52,2.22-15.72-9.03-32.02-24.7-33.11-11.67-.82-20.86,5.88-24.69,9.36-3.8-3.52-12.58-10.29-24.26-9.57-15.67.97-27.08,17.18-24.99,32.92,2.07,15.59,11.03,33.13,49.25,54.91Z"/>
    <path class="st0" d="M453.26,398.89c38.41-21.47,47.18-38.94,49.38-54.52,2.22-15.72-9.03-32.02-24.7-33.12-11.67-.81-20.85,5.89-24.69,9.36-3.8-3.51-12.58-10.28-24.26-9.56-15.67.97-27.07,17.18-24.99,32.92,2.07,15.59,11.03,33.13,49.25,54.91Z"/>
    <path class="st0" d="M471.2,337.98c38.41-21.47,47.18-38.93,49.38-54.51,2.22-15.72-9.03-32.02-24.69-33.12-11.67-.81-20.86,5.89-24.69,9.36-3.8-3.51-12.57-10.29-24.25-9.56-15.68.97-27.08,17.17-25,32.9,2.07,15.6,11.03,33.13,49.25,54.91Z"/>
    <path class="st0" d="M418.3,308.68c38.41-21.47,47.19-38.93,49.39-54.52,2.22-15.72-9.03-32.01-24.7-33.11-11.67-.82-20.86,5.89-24.69,9.36-3.8-3.52-12.57-10.29-24.26-9.57-15.67.97-27.07,17.18-24.99,32.92,2.07,15.6,11.03,33.14,49.25,54.91Z"/>
    <path class="st0" d="M412.19,432.92c38.41-21.47,47.18-38.93,49.39-54.52,2.22-15.72-9.03-32-24.7-33.11-11.67-.81-20.86,5.89-24.69,9.36-3.8-3.52-12.57-10.29-24.25-9.56-15.67.97-27.08,17.17-24.99,32.9,2.07,15.6,11.03,33.13,49.25,54.91Z"/>
    <path class="st2" d="M480.28,276.32c38.41-21.47,47.18-38.93,49.38-54.52,2.22-15.72-9.03-32-24.69-33.11-11.67-.81-20.86,5.89-24.69,9.36-3.8-3.51-12.57-10.28-24.26-9.56-15.67.97-27.07,17.17-24.99,32.91,2.07,15.6,11.03,33.13,49.25,54.92Z"/>
    <path class="st1" d="M535.6,301.17c38.41-21.46,47.18-38.93,49.38-54.51,2.22-15.72-9.03-32.02-24.7-33.11-11.67-.82-20.86,5.88-24.69,9.36-3.8-3.51-12.58-10.29-24.26-9.56-15.67.97-27.08,17.18-24.99,32.92,2.07,15.59,11.03,33.12,49.25,54.9Z"/>
    <path class="st1" d="M580.03,146.95c38.41-21.47,47.18-38.93,49.39-54.51,2.22-15.72-9.04-32.01-24.7-33.11-11.67-.82-20.86,5.89-24.69,9.36-3.8-3.51-12.58-10.28-24.26-9.56-15.67.97-27.07,17.17-24.99,32.91,2.07,15.6,11.03,33.13,49.25,54.91Z"/>
    <path class="st0" d="M545.89,228.62c38.41-21.47,47.18-38.93,49.38-54.51,2.22-15.72-9.03-32.01-24.69-33.11-11.68-.82-20.86,5.89-24.69,9.36-3.8-3.51-12.58-10.29-24.26-9.56-15.67.97-27.07,17.17-24.99,32.91,2.07,15.6,11.03,33.13,49.25,54.91Z"/>
    <path class="st0" d="M304.54,235.14c38.41-21.47,47.18-38.93,49.38-54.51,2.22-15.72-9.03-32.01-24.7-33.11-11.67-.81-20.86,5.89-24.69,9.36-3.8-3.51-12.58-10.29-24.26-9.56-15.67.97-27.08,17.18-24.99,32.91,2.07,15.6,11.03,33.13,49.25,54.91Z"/>
    <path class="st0" d="M353.41,314.28c38.4-21.47,47.18-38.93,49.38-54.52,2.22-15.72-9.03-32.01-24.7-33.11-11.67-.82-20.86,5.88-24.69,9.36-3.8-3.51-12.57-10.28-24.25-9.56-15.67.97-27.08,17.18-24.99,32.92,2.07,15.59,11.02,33.13,49.25,54.91Z"/>
    <path class="st1" d="M308.04,295.91c38.41-21.47,47.18-38.93,49.38-54.52,2.22-15.72-9.03-32-24.69-33.11-11.67-.81-20.86,5.89-24.69,9.36-3.8-3.51-12.58-10.29-24.26-9.56-15.67.97-27.07,17.17-24.99,32.9,2.07,15.6,11.03,33.13,49.25,54.91Z"/>
    <path class="st0" d="M261.77,294.04c38.41-21.46,47.18-38.93,49.38-54.51,2.22-15.72-9.03-32.02-24.7-33.11-11.67-.82-20.86,5.89-24.69,9.36-3.8-3.51-12.58-10.29-24.25-9.56-15.67.97-27.08,17.18-24.99,32.91,2.07,15.6,11.03,33.13,49.25,54.91Z"/>
    <path class="st0" d="M187.73,366.76c38.4-21.47,47.18-38.93,49.38-54.52,2.22-15.72-9.04-32.01-24.7-33.11-11.67-.81-20.86,5.89-24.69,9.36-3.8-3.52-12.58-10.29-24.26-9.57-15.67.97-27.08,17.18-24.99,32.92,2.07,15.6,11.03,33.13,49.25,54.91Z"/>
    <path class="st2" d="M143.37,315.22c38.4-21.47,47.18-38.93,49.38-54.52,2.22-15.72-9.03-32.01-24.7-33.11-11.67-.82-20.86,5.88-24.69,9.36-3.8-3.51-12.58-10.28-24.26-9.56-15.67.97-27.08,17.18-24.99,32.92,2.07,15.59,11.03,33.13,49.25,54.91Z"/>
    <path class="st0" d="M143.38,272.55c38.4-21.47,47.18-38.93,49.38-54.52,2.22-15.72-9.04-32.01-24.7-33.11-11.67-.82-20.86,5.89-24.69,9.36-3.8-3.51-12.58-10.28-24.26-9.56-15.67.97-27.07,17.17-24.99,32.91,2.07,15.6,11.03,33.13,49.25,54.91Z"/>
    <path class="st0" d="M159.99,217.87c38.41-21.47,47.18-38.93,49.38-54.51,2.22-15.72-9.03-32.02-24.7-33.11-11.67-.82-20.86,5.89-24.69,9.36-3.8-3.51-12.57-10.29-24.25-9.56-15.67.97-27.08,17.17-24.99,32.91,2.07,15.59,11.02,33.12,49.25,54.91Z"/>
    <path class="st0" d="M197.93,167.86c38.41-21.47,47.18-38.93,49.38-54.51,2.22-15.72-9.03-32.01-24.69-33.11-11.67-.82-20.86,5.89-24.69,9.36-3.8-3.51-12.58-10.28-24.25-9.56-15.67.97-27.08,17.17-24.99,32.91,2.07,15.6,11.03,33.13,49.25,54.91Z"/>
    <path class="st0" d="M254.96,156.09c38.41-21.47,47.18-38.93,49.38-54.51,2.22-15.72-9.03-32.01-24.69-33.11-11.67-.81-20.86,5.89-24.69,9.36-3.8-3.51-12.58-10.29-24.25-9.56-15.68.97-27.08,17.18-24.99,32.91,2.06,15.6,11.02,33.13,49.25,54.91Z"/>
    <path class="st1" d="M304.54,163.07c38.41-21.47,47.18-38.93,49.38-54.51,2.22-15.72-9.03-32.01-24.7-33.11-11.67-.81-20.86,5.89-24.69,9.36-3.8-3.51-12.58-10.29-24.26-9.56-15.67.97-27.08,17.17-24.99,32.91,2.07,15.6,11.03,33.13,49.25,54.91Z"/>
    <path class="st2" d="M337.71,210.66c38.41-21.47,47.19-38.93,49.39-54.51,2.22-15.72-9.03-32.01-24.7-33.11-11.67-.82-20.86,5.89-24.69,9.36-3.8-3.51-12.57-10.29-24.25-9.56-15.67.97-27.07,17.17-24.99,32.91,2.06,15.6,11.02,33.13,49.25,54.91Z"/>
    <path class="st0" d="M362.61,261.8c38.41-21.46,47.18-38.93,49.38-54.51,2.22-15.72-9.03-32.01-24.69-33.11-11.67-.82-20.86,5.89-24.69,9.36-3.8-3.51-12.58-10.28-24.26-9.56-15.67.97-27.07,17.17-24.99,32.91,2.07,15.59,11.03,33.13,49.25,54.9Z"/>
    <path class="st0" d="M427.35,248.6c38.4-21.47,47.18-38.93,49.38-54.51,2.22-15.72-9.03-32.02-24.7-33.11-11.67-.82-20.86,5.89-24.69,9.36-3.8-3.51-12.58-10.29-24.26-9.56-15.67.97-27.08,17.17-24.99,32.91,2.07,15.6,11.03,33.13,49.25,54.91Z"/>
    <path class="st2" d="M486.01,215.98c38.41-21.47,47.18-38.93,49.39-54.51,2.22-15.72-9.04-32.01-24.7-33.11-11.67-.82-20.86,5.89-24.69,9.36-3.8-3.51-12.58-10.29-24.26-9.56-15.67.97-27.07,17.18-24.99,32.91,2.07,15.6,11.03,33.13,49.25,54.91Z"/>
    <path class="st0" d="M530.59,174.03c38.41-21.47,47.19-38.93,49.39-54.51,2.22-15.72-9.04-32.01-24.7-33.11-11.67-.82-20.85,5.89-24.69,9.36-3.8-3.51-12.58-10.29-24.25-9.56-15.67.97-27.08,17.18-24.99,32.92,2.06,15.59,11.03,33.12,49.25,54.91Z"/>
    <path class="st2" d="M612.22,179.42c38.4-21.47,47.19-38.93,49.39-54.51,2.22-15.72-9.04-32.01-24.7-33.11-11.67-.82-20.85,5.89-24.69,9.36-3.8-3.51-12.58-10.29-24.26-9.56-15.67.97-27.07,17.18-24.99,32.91,2.07,15.6,11.03,33.13,49.25,54.91Z"/>
    <path class="st0" d="M237.31,215.85c38.41-21.47,47.18-38.92,49.38-54.51,2.22-15.72-9.03-32.01-24.7-33.11-11.67-.82-20.86,5.89-24.69,9.36-3.8-3.51-12.58-10.29-24.26-9.56-15.67.97-27.07,17.18-24.99,32.92,2.07,15.6,11.03,33.13,49.25,54.9Z"/>
    <path class="st2" d="M192.97,127.6c38.41-21.47,47.18-38.93,49.38-54.51,2.22-15.72-9.03-32.01-24.7-33.11-11.67-.81-20.86,5.89-24.69,9.36-3.8-3.51-12.58-10.29-24.26-9.56-15.67.97-27.08,17.17-24.99,32.91,2.07,15.6,11.03,33.13,49.25,54.91Z"/>
    <path class="st0" d="M149.49,167.86c38.41-21.47,47.18-38.93,49.39-54.51,2.22-15.72-9.04-32.01-24.7-33.11-11.67-.82-20.86,5.89-24.69,9.36-3.8-3.51-12.57-10.28-24.26-9.56-15.67.97-27.07,17.17-24.99,32.91,2.06,15.6,11.02,33.13,49.24,54.91Z"/>
    <path class="st2" d="M232.13,271.28c38.41-21.47,47.18-38.93,49.39-54.52,2.22-15.72-9.03-32-24.7-33.11-11.67-.82-20.86,5.89-24.69,9.36-3.8-3.51-12.57-10.28-24.25-9.56-15.67.97-27.08,17.17-24.99,32.91,2.06,15.61,11.02,33.14,49.25,54.92Z"/>
    <path class="st0" d="M263.01,118.66c38.41-21.47,47.18-38.93,49.39-54.51,2.22-15.72-9.03-32.01-24.7-33.11-11.67-.82-20.86,5.89-24.69,9.36-3.8-3.51-12.57-10.29-24.25-9.56-15.67.97-27.08,17.17-24.99,32.91,2.07,15.6,11.03,33.13,49.25,54.91Z"/>
    <path class="st1" d="M135.2,220.72c38.41-21.47,47.18-38.93,49.38-54.51,2.22-15.72-9.03-32.01-24.7-33.11-11.67-.82-20.86,5.89-24.69,9.36-3.8-3.51-12.57-10.29-24.25-9.56-15.67.97-27.08,17.17-24.99,32.91,2.07,15.6,11.03,33.13,49.25,54.92Z"/>
    <path class="st0" d="M304.54,412.68c38.41-21.47,47.18-38.93,49.38-54.52,2.22-15.72-9.03-32.02-24.7-33.11-11.67-.82-20.86,5.88-24.69,9.36-3.8-3.52-12.58-10.29-24.26-9.56-15.67.97-27.08,17.17-24.99,32.9,2.07,15.6,11.03,33.13,49.25,54.91Z"/>
    <path class="st0" d="M313.03,453.21c38.41-21.46,47.18-38.93,49.39-54.51,2.22-15.73-9.04-32.02-24.7-33.12-11.67-.81-20.86,5.89-24.69,9.36-3.8-3.51-12.58-10.29-24.25-9.56-15.67.97-27.07,17.17-24.99,32.9,2.06,15.6,11.02,33.13,49.24,54.91Z"/>
    <path class="st2" d="M258.46,417.45c38.4-21.47,47.18-38.93,49.38-54.52,2.22-15.72-9.03-32-24.7-33.11-11.67-.81-20.86,5.89-24.69,9.36-3.8-3.51-12.58-10.29-24.25-9.57-15.67.97-27.08,17.18-24.99,32.92,2.06,15.6,11.02,33.13,49.25,54.91Z"/>
    <path class="st0" d="M319.61,366.76c38.41-21.47,47.18-38.93,49.38-54.52,2.22-15.72-9.03-32.01-24.69-33.11-11.67-.81-20.86,5.89-24.69,9.36-3.8-3.52-12.57-10.29-24.25-9.57-15.67.97-27.08,17.18-24.99,32.92,2.06,15.6,11.02,33.13,49.25,54.91Z"/>
    <path class="st0" d="M248.65,352.63c38.4-21.47,47.18-38.94,49.38-54.52,2.22-15.72-9.04-32.02-24.7-33.11-11.67-.82-20.86,5.88-24.69,9.36-3.8-3.51-12.58-10.28-24.26-9.56-15.67.97-27.08,17.18-24.99,32.92,2.07,15.59,11.03,33.13,49.25,54.91Z"/>
    <path class="st0" d="M199.07,319.1c38.4-21.47,47.18-38.93,49.38-54.52,2.22-15.72-9.03-32-24.7-33.11-11.67-.81-20.86,5.89-24.69,9.36-3.8-3.51-12.58-10.29-24.26-9.56-15.67.97-27.08,17.17-24.99,32.91,2.07,15.6,11.03,33.13,49.25,54.91Z"/>
  </g>
  <path class="st4" d="M492.93,352.92s-89.32,125.12,0,328.86h-185.86c89.32-203.74,0-328.86,0-328.86h36.54l26.57,76.47,9.97-149.55h27.68l15.5,109.62,66.44-73.08,3.15,36.54Z"/>
  <path class="st3" d="M492.93,352.92l-3.16-36.54-66.44,73.08-15.5-109.62h-8.73v401.94h93.83c-89.32-203.74,0-328.86,0-328.86Z"/>
  <path class="st0" d="M312.46,240.96c0-18.45,14.77-33.4,33-33.4s33,14.95,33,33.4c0-18.45,14.77-33.4,33-33.4s33,14.95,33,33.4c0,31.94-65.99,70.15-65.99,70.15,0,0-65.99-36.41-65.99-70.15Z"/>
  <path class="st0" d="M577.07,281.45c-11.57-14.37-9.44-35.28,4.75-46.71s35.08-9.04,46.65,5.33c-11.57-14.37-9.44-35.28,4.75-46.71,14.19-11.43,35.08-9.04,46.65,5.33,20.03,24.88-7.41,96.03-7.41,96.03,0,0-74.24,13.03-95.4-13.26Z"/>
  <g>
    <path class="st2" d="M227.54,347.53c-12.03-13.99-10.57-34.96,3.25-46.84,13.82-11.88,34.77-10.17,46.8,3.82-12.03-13.99-10.57-34.96,3.25-46.84,13.82-11.88,34.77-10.17,46.8,3.82,20.82,24.22-4.32,96.22-4.32,96.22,0,0-73.78,15.41-95.77-10.17Z"/>
    <path class="st2" d="M437.51,175.45c8.71-16.26,28.8-22.47,44.86-13.87,16.06,8.6,22.03,28.76,13.32,45.03,8.71-16.26,28.8-22.47,44.86-13.87,16.06,8.6,22.03,28.76,13.32,45.03-15.08,28.16-91.29,30.68-91.29,30.68,0,0-40.99-63.25-25.06-93Z"/>
    <path class="st2" d="M139.69,100.22c-1.42-18.4,12.16-34.44,30.33-35.84,18.17-1.4,34.05,12.38,35.47,30.77-1.42-18.4,12.16-34.44,30.33-35.84,18.17-1.4,34.05,12.38,35.47,30.77,2.45,31.85-60.41,75.01-60.41,75.01,0,0-68.6-31.23-71.19-64.87Z"/>
    <path class="st2" d="M454.31,326.37c11.61-14.33,32.51-16.65,46.67-5.18s16.23,32.39,4.62,46.72c11.61-14.33,32.51-16.65,46.67-5.18s16.23,32.39,4.62,46.72c-20.11,24.82-95.45,12.96-95.45,12.96,0,0-28.37-69.83-7.13-96.04Z"/>
  </g>
  <path class="st0" d="M224.16,310.87c-3.33-11.09,2.86-22.75,13.83-26.03,10.97-3.29,22.55,3.04,25.88,14.13-3.33-11.09,2.86-22.75,13.83-26.03s22.55,3.04,25.88,14.13c5.76,19.2-27.05,54.07-27.05,54.07,0,0-46.28-9.99-52.36-30.27Z"/>
  <path class="st0" d="M225.32,132.37c-3.33-11.09,2.86-22.75,13.83-26.03,10.97-3.29,22.55,3.04,25.88,14.13-3.33-11.09,2.86-22.75,13.83-26.03s22.55,3.04,25.88,14.13c5.76,19.2-27.05,54.07-27.05,54.07,0,0-46.28-9.99-52.36-30.27Z"/>
  <path class="st2" d="M243.82,198.44c2.33-11.34,13.3-18.67,24.52-16.37,11.21,2.31,18.41,13.37,16.09,24.71,2.33-11.34,13.3-18.67,24.52-16.37,11.21,2.31,18.41,13.37,16.09,24.71-4.03,19.64-49.45,34.79-49.45,34.79,0,0-36.01-30.73-31.75-51.48Z"/>
  <path class="st2" d="M569.53,62.21c.54-11.57,10.25-20.51,21.69-19.97,11.43.54,20.26,10.36,19.72,21.92.54-11.57,10.25-20.51,21.69-19.97,11.43.54,20.26,10.36,19.72,21.92-.94,20.03-43.47,42.02-43.47,42.02,0,0-40.34-24.78-39.34-45.94Z"/>
  <g>
    <path class="st1" d="M356.45,172.13c-3.33-11.09,2.86-22.75,13.83-26.03,10.97-3.29,22.55,3.04,25.88,14.13-3.33-11.09,2.86-22.75,13.83-26.03,10.97-3.29,22.55,3.04,25.88,14.13,5.76,19.2-27.05,54.07-27.05,54.07,0,0-46.28-9.98-52.36-30.27Z"/>
    <path class="st1" d="M320.22,467.36c-10.73-4.35-15.95-16.47-11.64-27.08,4.3-10.61,16.49-15.68,27.22-11.33-10.73-4.35-15.95-16.47-11.64-27.08,4.3-10.61,16.49-15.68,27.22-11.33,18.58,7.53,25.23,54.95,25.23,54.95,0,0-36.76,29.82-56.39,21.87Z"/>
    <path class="st1" d="M610.94,155.75c.36-11.58,9.93-20.67,21.37-20.3,11.44.36,20.42,10.04,20.06,21.61.36-11.58,9.93-20.67,21.37-20.3,11.44.36,20.42,10.04,20.06,21.61-.62,20.04-42.8,42.71-42.8,42.71,0,0-40.71-24.15-40.05-45.32Z"/>
    <path class="st1" d="M485.7,64.9c.43-13.97,11.98-24.93,25.78-24.5,13.8.43,24.64,12.11,24.2,26.07.43-13.97,11.98-24.93,25.78-24.5,13.8.43,24.64,12.11,24.2,26.07-.75,24.18-51.64,51.53-51.64,51.53,0,0-49.12-29.14-48.32-54.68Z"/>
    <path class="st1" d="M164.04,51.09c.36-11.58,9.93-20.67,21.37-20.3,11.44.36,20.42,10.04,20.06,21.61.36-11.58,9.93-20.67,21.37-20.3,11.44.36,20.42,10.04,20.06,21.61-.62,20.04-42.8,42.71-42.8,42.71,0,0-40.71-24.15-40.05-45.32Z"/>
    <path class="st1" d="M153.62,264.48c-4.62-10.62.16-22.93,10.66-27.48,10.5-4.56,22.75.36,27.36,10.98-4.62-10.62.16-22.93,10.66-27.48,10.5-4.56,22.75.36,27.36,10.98,7.99,18.39-20.48,56.89-20.48,56.89,0,0-47.12-4.47-55.56-23.89Z"/>
    <path class="st1" d="M312.01,349.91c-3.33-11.09,2.86-22.75,13.83-26.03,10.97-3.29,22.55,3.04,25.88,14.13-3.33-11.09,2.86-22.75,13.83-26.03s22.55,3.04,25.88,14.13c5.76,19.2-27.05,54.07-27.05,54.07,0,0-46.28-9.98-52.36-30.27Z"/>
    <path class="st1" d="M559.35,265.48c8.85-7.47,22.01-6.42,29.38,2.33,7.38,8.75,6.18,21.9-2.67,29.37,8.85-7.47,22.01-6.42,29.38,2.33,7.38,8.75,6.18,21.9-2.67,29.37-15.33,12.93-60.37-3.31-60.37-3.31,0,0-9.24-46.43,6.95-60.08Z"/>
  </g>
  <path class="st0" d="M596.83,123.84c-3.33-11.09,2.86-22.75,13.83-26.03,10.97-3.29,22.55,3.04,25.88,14.13-3.33-11.09,2.86-22.75,13.83-26.03s22.55,3.04,25.88,14.13c5.76,19.2-27.05,54.07-27.05,54.07,0,0-46.28-9.99-52.36-30.27Z"/>
  <path class="st0" d="M463.96,106.06c-.37-18.44,14.11-33.69,32.32-34.05s33.29,14.29,33.66,32.74c-.37-18.44,14.11-33.69,32.32-34.05,18.22-.36,33.29,14.29,33.66,32.74.64,31.93-64.58,71.45-64.58,71.45,0,0-66.71-35.08-67.38-68.82Z"/>
  <path class="st0" d="M456.88,275.27c5.34-10.28,17.89-14.33,28.05-9.06s14.06,17.88,8.73,28.16c5.34-10.28,17.89-14.33,28.05-9.06,10.16,5.27,14.06,17.88,8.73,28.16-9.24,17.79-57.07,19.98-57.07,19.98,0,0-26.25-39.38-16.5-58.17Z"/>
  <path class="st0" d="M451.17,386.49c10.94-3.79,22.85,1.9,26.6,12.71,3.75,10.81-2.09,22.65-13.02,26.45,10.94-3.79,22.85,1.9,26.6,12.71,3.75,10.81-2.08,22.65-13.02,26.45-18.94,6.57-55.17-24.74-55.17-24.74,0,0,8.02-46.65,28.03-53.58Z"/>
</svg>